<?xml version="1.0" encoding="UTF-8" standalone="no"?>
<!-- Created with Inkscape (http://www.inkscape.org/) -->

<svg
   version="1.1"
   id="svg1"
   width="1200"
   height="1200"
   viewBox="0 0 1200 1200"
   sodipodi:docname="fiction_systems_logo2.svg"
   inkscape:version="1.4.3 (1:1.4.3+202512261035+0d15f75042)"
   xmlns:inkscape="http://www.inkscape.org/namespaces/inkscape"
   xmlns:sodipodi="http://sodipodi.sourceforge.net/DTD/sodipodi-0.dtd"
   xmlns:xlink="http://www.w3.org/1999/xlink"
   xmlns="http://www.w3.org/2000/svg"
   xmlns:svg="http://www.w3.org/2000/svg">
  <defs
     id="defs1">
    <linearGradient
       id="linearGradient28"
       inkscape:collect="always">
      <stop
         style="stop-color:#d9c300;stop-opacity:1;"
         offset="0"
         id="stop27" />
      <stop
         style="stop-color:#fe0000;stop-opacity:1;"
         offset="1"
         id="stop28" />
    </linearGradient>
    <linearGradient
       id="linearGradient12"
       inkscape:collect="always">
      <stop
         style="stop-color:#d9c300;stop-opacity:1;"
         offset="0"
         id="stop13" />
      <stop
         style="stop-color:#914012;stop-opacity:0.77146345;"
         offset="1"
         id="stop14" />
    </linearGradient>
    <linearGradient
       inkscape:collect="always"
       xlink:href="#linearGradient12"
       id="linearGradient14"
       x1="423.45132"
       y1="410.60266"
       x2="777.97363"
       y2="410.60266"
       gradientUnits="userSpaceOnUse"
       spreadMethod="reflect"
       gradientTransform="matrix(1.5160199,0,0,1.4961362,-304.75201,-174.07549)" />
    <linearGradient
       inkscape:collect="always"
       xlink:href="#linearGradient28"
       id="linearGradient27"
       gradientUnits="userSpaceOnUse"
       x1="423.45132"
       y1="410.60266"
       x2="777.97363"
       y2="410.60266"
       spreadMethod="reflect"
       gradientTransform="matrix(2.0533001,0,0,2.0263696,425.19617,389.25525)" />
    <linearGradient
       inkscape:collect="always"
       xlink:href="#linearGradient12"
       id="linearGradient33"
       gradientUnits="userSpaceOnUse"
       x1="423.45132"
       y1="410.60266"
       x2="777.97363"
       y2="410.60266"
       spreadMethod="reflect"
       gradientTransform="matrix(1.5160199,0,0,1.4961362,-304.75201,-174.07549)" />
    <linearGradient
       inkscape:collect="always"
       xlink:href="#linearGradient12"
       id="linearGradient34"
       gradientUnits="userSpaceOnUse"
       x1="423.45132"
       y1="410.60266"
       x2="777.97363"
       y2="410.60266"
       spreadMethod="reflect"
       gradientTransform="matrix(1.5160199,0,0,1.4961362,-304.75201,-174.07549)" />
    <linearGradient
       inkscape:collect="always"
       xlink:href="#linearGradient12"
       id="linearGradient35"
       gradientUnits="userSpaceOnUse"
       x1="423.45132"
       y1="410.60266"
       x2="777.97363"
       y2="410.60266"
       spreadMethod="reflect"
       gradientTransform="matrix(1.5160199,0,0,1.4961362,-304.75201,-174.07549)" />
    <linearGradient
       inkscape:collect="always"
       xlink:href="#linearGradient12"
       id="linearGradient36"
       gradientUnits="userSpaceOnUse"
       x1="423.45132"
       y1="410.60266"
       x2="777.97363"
       y2="410.60266"
       spreadMethod="reflect"
       gradientTransform="matrix(1.5160199,0,0,1.4961362,-304.75201,-174.07549)" />
    <linearGradient
       inkscape:collect="always"
       xlink:href="#linearGradient28"
       id="linearGradient37"
       gradientUnits="userSpaceOnUse"
       gradientTransform="matrix(2.0533001,0,0,2.0263696,425.19617,389.25525)"
       x1="423.45132"
       y1="410.60266"
       x2="777.97363"
       y2="410.60266"
       spreadMethod="reflect" />
  </defs>
  <sodipodi:namedview
     id="namedview1"
     pagecolor="#ffffff"
     bordercolor="#000000"
     borderopacity="0.25"
     inkscape:showpageshadow="2"
     inkscape:pageopacity="0.0"
     inkscape:pagecheckerboard="0"
     inkscape:deskcolor="#d1d1d1"
     inkscape:zoom="0.73833333"
     inkscape:cx="599.3228"
     inkscape:cy="692.77652"
     inkscape:window-width="2494"
     inkscape:window-height="1371"
     inkscape:window-x="66"
     inkscape:window-y="32"
     inkscape:window-maximized="1"
     inkscape:current-layer="g1" />
  <g
     inkscape:groupmode="layer"
     inkscape:label="Image"
     id="g1">
    <path
       style="fill:url(#linearGradient33);stroke:none;stroke-width:2.03979"
       d="m 663.63382,757.95978 c -6.91957,-21.20274 -6.8642,-21.18215 -56.92803,-21.18215 -46.97618,0 -46.19564,-0.24317 -55.28981,17.22415 -9.22569,17.71991 -8.04771,17.26879 -27.04332,10.35675 -47.81424,-17.39845 -93.79183,-51.00236 -120.70084,-88.21737 -28.81298,-39.84821 -58.68672,-127.57313 -64.91803,-190.63335 -3.14683,-31.84556 -1.17275,-141.57217 3.09039,-171.77503 12.97997,-91.95858 50.90816,-146.68926 127.9566,-184.64236 16.90062,-8.32504 49.68444,-19.47417 57.26344,-19.47417 2.27131,0 2.85025,4.88304 2.85025,24.03985 0,28.79995 2.60067,44.02671 8.59506,50.32377 l 4.44059,4.66479 63.8077,-0.0135 63.80772,-0.0135 5.11183,-7.40573 c 4.72009,-6.83816 5.20944,-9.79185 6.38539,-38.54082 0.70044,-17.12432 1.7918,-31.64659 2.42524,-32.27171 2.28403,-2.25408 35.73336,7.64578 52.80979,15.62988 30.21995,14.12938 49.08903,26.21868 66.91803,42.87397 30.25738,28.26547 46.40772,57.73531 59.41949,108.42381 10.76168,41.92307 11.81692,57.05577 10.67396,153.06838 -1.15934,97.38591 -1.39419,99.10931 -21.66709,158.99273 -18.73964,55.35445 -36.01769,85.92201 -65.03854,115.0633 -26.08638,26.19464 -55.97696,45.49536 -90.34521,58.33703 -30.33516,11.3347 -28.25227,11.63379 -33.62461,-4.82803 z M 534.96409,675.13297 c 1.67134,-3.18962 6.06983,-6.97516 9.77443,-8.41231 9.55598,-3.70708 90.51561,-5.10637 108.99093,-1.88377 12.94308,2.25764 14.33285,3.01312 19.01881,10.33878 5.83484,9.12178 7.40797,9.53711 13.13702,3.46833 5.67592,-6.01245 5.55893,-17.66371 -0.23901,-23.80546 -12.15322,-12.87384 -35.83541,-16.36907 -98.2394,-14.49908 -39.25198,1.17623 -40.28162,1.31935 -52.35914,7.27842 -11.70598,5.77574 -12.46161,6.60542 -15.16582,16.65189 -2.54752,9.4643 -2.48632,11.11509 0.58341,15.73865 2.83115,4.26419 4.12994,4.79537 7.4447,3.04462 2.20839,-1.16639 5.38272,-4.73041 7.05407,-7.92007 z M 780.96491,550.57474 c 28.61945,-7.8042 45.61946,-22.49622 57.13603,-49.37903 5.92732,-13.83594 6.9069,-18.79765 8.298,-42.03072 1.68948,-28.21629 0.7294,-53.95697 -2.68309,-71.93611 -4.59781,-24.22433 -21.64941,-45.86061 -44.45943,-56.4133 l -11.65278,-5.39096 H 605.88658 424.16952 l -11.65278,5.39096 c -23.0756,10.67555 -37.94522,29.95914 -45.06296,58.43967 -4.24689,16.99328 -3.53909,80.25342 1.08665,97.12105 11.78113,42.95947 37.89008,63.2216 86.4286,67.07384 11.29315,0.89627 86.59792,1.34246 167.34396,0.99153 126.62987,-0.55031 148.43865,-1.08189 158.65192,-3.86693 z"
       id="path7" />
    <path
       style="fill:url(#linearGradient34);fill-opacity:1;stroke:none;stroke-width:2.03979"
       d="m 469.51819,1086.0972 c -58.9727,-3.7082 -180.17544,-19.5587 -184.86026,-24.1755 -2.68209,-2.6431 -4.17174,-109.25742 -2.14128,-153.24866 l 1.41892,-30.74154 5.43803,-2.15751 c 11.09958,-4.40371 67.04883,-15.47172 84.29583,-16.67562 l 9.0456,-0.63141 7.52515,18.49676 c 13.40605,32.952 30.46499,54.08432 58.46577,72.42641 27.3202,17.89628 67.02308,29.45284 115.6013,33.64878 l 29.25953,2.5273 v 51.39329 51.3933 l -48.76587,-0.2941 c -26.82125,-0.1618 -60.69845,-1.0444 -75.28272,-1.9615 z m 92.55748,-51.6588 c 2.50764,-3.7501 2.37507,-4.8521 -1.09216,-9.0778 -3.40139,-4.1455 -4.75566,-4.5298 -9.80779,-2.7833 -10.5497,3.6471 -7.99368,18.0538 2.96969,16.7384 2.79186,-0.3349 6.36046,-2.5297 7.93026,-4.8773 z"
       id="path14" />
    <path
       style="fill:url(#linearGradient35);fill-opacity:1;stroke:none;stroke-width:2.03979"
       d="m 618.20638,1038.6403 v -51.20811 l 12.83312,-1.38118 c 58.4785,-6.29389 80.99456,-10.92262 108.31159,-22.2661 20.76858,-8.62421 31.31933,-15.49535 47.68073,-31.0519 16.67686,-15.8565 28.73019,-33.62166 37.8526,-55.79022 l 6.81308,-16.55662 10.36122,0.44753 c 9.98877,0.43144 71.27779,13.10518 80.97998,16.74558 l 4.73985,1.77845 1.41017,57.38441 c 0.7756,31.56144 1.11373,72.82146 0.7514,91.68886 l -0.65877,34.3045 -5.72012,1.5077 c -10.02262,2.6419 -73.10706,11.7877 -110.19728,15.9761 -41.87098,4.7283 -92.89118,7.6767 -152.55159,8.8157 l -42.60598,0.8135 z m 47.32771,-2.081 c 1.90056,-2.26 2.10438,-4.7141 0.71529,-8.6121 -1.58886,-4.4587 -3.20165,-5.4515 -8.85596,-5.4515 -8.79342,0 -12.22322,4.6595 -8.83379,12.0009 2.80993,6.0862 12.59127,7.2748 16.97446,2.0627 z"
       id="path15" />
    <path
       style="fill:url(#linearGradient36);fill-opacity:1;stroke:none;stroke-width:2.03979"
       d="m 1014.4933,975.05806 c 0,-74.13059 -2.0558,-68.28046 18.6106,-52.95925 34.975,25.9289 50.8176,51.69977 45.0218,73.23577 -4.3687,16.23342 -34.4168,39.12542 -57.2793,43.63792 l -6.3531,1.254 z"
       id="path18" />
    <path
       style="fill:#d9cc00;fill-opacity:1;stroke:none;stroke-width:2.03979"
       d="m 178.24109,1033.6344 c -42.11268,-17.9897 -54.40982,-39.35776 -40.50409,-70.38165 6.30518,-14.06697 33.81138,-40.11598 54.92294,-52.0133 2.03041,-1.14421 2.56662,12.12578 2.56662,63.51701 0,35.72994 -0.69299,64.93074 -1.53997,64.89074 -0.84699,-0.04 -7.79745,-2.7457 -15.4455,-6.0128 z"
       id="path19" />
    <path
       style="fill:#d9cc00;fill-opacity:1;stroke:none;stroke-width:2.03979"
       d="m 291.73166,513.29219 c -12.79492,-8.02733 -21.40126,-18.34458 -26.4824,-31.74705 -3.60584,-9.51107 -4.31709,-15.90319 -4.31709,-38.79806 0,-29.02664 2.56827,-39.54497 13.23928,-54.22127 6.46545,-8.89221 26.14449,-22.20455 28.16967,-19.05602 1.94594,3.02535 1.91396,138.22798 -0.0343,144.98689 l -1.33531,4.63246 z"
       id="path20" />
    <path
       style="fill:url(#linearGradient14);fill-opacity:1;stroke:none;stroke-width:2.03979"
       d="m 910.21629,445.35642 c 0.32195,-41.81719 1.23661,-76.67305 2.03258,-77.45744 1.79289,-1.76683 19.14116,7.90316 26.83391,14.95731 7.53702,6.91134 11.77099,21.36346 13.19937,45.05434 1.31715,21.84599 -3.24039,52.33759 -9.65866,64.62 -4.34289,8.31084 -14.15462,17.75539 -25.22065,24.27687 l -7.77191,4.58018 z"
       id="path21" />
    <path
       style="fill:url(#linearGradient37);fill-opacity:0.823529;stroke:none;stroke-width:2.76269"
       d="m 465.65168,487.7132 c -20.85092,-7.50637 -33.66233,-22.63114 -35.6867,-42.13064 -1.55329,-14.96187 2.20473,-26.72144 11.83397,-37.03093 22.9627,-24.58485 61.57955,-22.34467 80.83211,4.6891 5.22632,7.33864 6.3077,10.99156 6.94587,23.46339 0.79624,15.56105 -1.15463,21.73752 -10.95109,34.67102 -10.40258,13.73371 -37.22743,22.00691 -52.97416,16.33806 z"
       id="path27" />
    <path
       style="fill:url(#linearGradient27);fill-opacity:0.823529;stroke:none;stroke-width:2.76269"
       d="m 715.50273,487.29675 c -26.2385,-9.18347 -41.80613,-39.11729 -32.64947,-62.77916 10.13811,-26.19808 41.34841,-40.36266 66.31695,-30.09747 9.6725,3.97659 22.16347,15.80807 27.53264,26.07895 12.98212,24.83404 -3.1307,58.62341 -31.98817,67.08075 -12.39736,3.63334 -18.18242,3.57728 -29.21195,-0.28307 z"
       id="path28" />
  </g>
</svg>
